<mxfile host="Electron" modified="2023-10-02T22:28:20.874Z" agent="Mozilla/5.0 (X11; Linux x86_64) AppleWebKit/537.36 (KHTML, like Gecko) draw.io/21.5.1 Chrome/112.0.5615.204 Electron/24.6.0 Safari/537.36" etag="yFGMCs_B4qwLyRU2k5Tw" version="21.5.1" type="device">
  <diagram name="Page-1" id="Pqz5ZIfatG5j40akm8x7">
    <mxGraphModel dx="1434" dy="843" grid="1" gridSize="24" guides="1" tooltips="1" connect="1" arrows="1" fold="1" page="1" pageScale="1" pageWidth="850" pageHeight="1100" math="0" shadow="0">
      <root>
        <mxCell id="0" />
        <mxCell id="1" parent="0" />
        <mxCell id="yGynIGTieEBJCCS6Y2Hg-5" value="users" style="swimlane;childLayout=stackLayout;horizontal=1;startSize=50;horizontalStack=0;rounded=1;fontSize=14;fontStyle=0;strokeWidth=2;resizeParent=0;resizeLast=1;shadow=0;dashed=0;align=center;arcSize=4;whiteSpace=wrap;html=1;" vertex="1" parent="1">
          <mxGeometry x="96" y="96" width="192" height="192" as="geometry" />
        </mxCell>
        <mxCell id="yGynIGTieEBJCCS6Y2Hg-6" value="+ user_id&lt;br&gt;+user_name&lt;br&gt;+ email&lt;br&gt;" style="align=left;strokeColor=none;fillColor=none;spacingLeft=4;fontSize=12;verticalAlign=top;resizable=0;rotatable=0;part=1;html=1;" vertex="1" parent="yGynIGTieEBJCCS6Y2Hg-5">
          <mxGeometry y="50" width="192" height="142" as="geometry" />
        </mxCell>
      </root>
    </mxGraphModel>
  </diagram>
</mxfile>
